<svg width="169" height="30" viewBox="0 0 169 30" fill="none" xmlns="http://www.w3.org/2000/svg">
<rect width="169" height="30" rx="3" fill="url(#paint0_linear_239_4)"/>
<path d="M17.906 23C17.402 23 16.94 22.881 16.52 22.643C16.114 22.391 15.785 22.062 15.533 21.656C15.295 21.236 15.176 20.774 15.176 20.27V10.61C15.176 10.106 15.295 9.651 15.533 9.245C15.785 8.825 16.114 8.496 16.52 8.258C16.94 8.006 17.402 7.88 17.906 7.88H30.254V10.148H18.221C17.997 10.148 17.808 10.225 17.654 10.379C17.514 10.519 17.444 10.701 17.444 10.925V19.955C17.444 20.179 17.514 20.368 17.654 20.522C17.808 20.662 17.997 20.732 18.221 20.732H30.254V23H17.906ZM35.1316 23C34.6276 23 34.1656 22.881 33.7456 22.643C33.3396 22.391 33.0106 22.062 32.7586 21.656C32.5206 21.236 32.4016 20.774 32.4016 20.27V10.61C32.4016 10.106 32.5206 9.651 32.7586 9.245C33.0106 8.825 33.3396 8.496 33.7456 8.258C34.1656 8.006 34.6276 7.88 35.1316 7.88H44.7916C45.2816 7.88 45.7366 8.006 46.1566 8.258C46.5766 8.496 46.9056 8.825 47.1436 9.245C47.3956 9.651 47.5216 10.106 47.5216 10.61V20.27C47.5216 20.774 47.3956 21.236 47.1436 21.656C46.9056 22.062 46.5766 22.391 46.1566 22.643C45.7366 22.881 45.2816 23 44.7916 23H35.1316ZM35.1946 20.732H44.7286C44.8686 20.732 44.9876 20.683 45.0856 20.585C45.1836 20.473 45.2326 20.347 45.2326 20.207V10.673C45.2326 10.533 45.1836 10.414 45.0856 10.316C44.9876 10.204 44.8686 10.148 44.7286 10.148H35.1946C35.0546 10.148 34.9286 10.204 34.8166 10.316C34.7186 10.414 34.6696 10.533 34.6696 10.673V20.207C34.6696 20.347 34.7186 20.473 34.8166 20.585C34.9286 20.683 35.0546 20.732 35.1946 20.732ZM49.8762 23V7.88H62.2452C62.7492 7.88 63.2112 8.006 63.6312 8.258C64.0512 8.496 64.3802 8.825 64.6182 9.245C64.8702 9.651 64.9962 10.106 64.9962 10.61V20.27C64.9962 20.774 64.8702 21.236 64.6182 21.656C64.3802 22.062 64.0512 22.391 63.6312 22.643C63.2112 22.881 62.7492 23 62.2452 23H49.8762ZM52.6482 20.732H62.2032C62.3432 20.732 62.4622 20.683 62.5602 20.585C62.6582 20.473 62.7072 20.347 62.7072 20.207V10.673C62.7072 10.533 62.6582 10.414 62.5602 10.316C62.4622 10.204 62.3432 10.148 62.2032 10.148H52.6482C52.5082 10.148 52.3892 10.204 52.2912 10.316C52.1932 10.414 52.1442 10.533 52.1442 10.673V20.207C52.1442 20.347 52.1932 20.473 52.2912 20.585C52.3892 20.683 52.5082 20.732 52.6482 20.732ZM67.3899 23V7.88H81.2499V10.148H69.6789V14.306H78.9819V16.574H69.6789V20.732H81.2499V23H67.3899ZM83.468 23V7.88H97.328V10.148H85.757V14.306H95.06V16.574H85.757V23H83.468ZM98.6228 23V7.859H100.891V20.732H113.743V23H98.6228ZM117.655 23C117.151 23 116.689 22.881 116.269 22.643C115.863 22.391 115.534 22.062 115.282 21.656C115.044 21.236 114.925 20.774 114.925 20.27V10.61C114.925 10.106 115.044 9.651 115.282 9.245C115.534 8.825 115.863 8.496 116.269 8.258C116.689 8.006 117.151 7.88 117.655 7.88H127.315C127.805 7.88 128.26 8.006 128.68 8.258C129.1 8.496 129.429 8.825 129.667 9.245C129.919 9.651 130.045 10.106 130.045 10.61V20.27C130.045 20.774 129.919 21.236 129.667 21.656C129.429 22.062 129.1 22.391 128.68 22.643C128.26 22.881 127.805 23 127.315 23H117.655ZM117.718 20.732H127.252C127.392 20.732 127.511 20.683 127.609 20.585C127.707 20.473 127.756 20.347 127.756 20.207V10.673C127.756 10.533 127.707 10.414 127.609 10.316C127.511 10.204 127.392 10.148 127.252 10.148H117.718C117.578 10.148 117.452 10.204 117.34 10.316C117.242 10.414 117.193 10.533 117.193 10.673V20.207C117.193 20.347 117.242 20.473 117.34 20.585C117.452 20.683 117.578 20.732 117.718 20.732ZM136.783 23L131.281 7.88H133.696L137.707 18.884L141.718 7.88H144.112L148.144 18.884L152.134 7.88H154.57L149.068 23H147.199L142.915 11.24L138.631 23H136.783Z" fill="url(#paint1_linear_239_4)"/>
<defs>
<linearGradient id="paint0_linear_239_4" x1="0" y1="15" x2="169" y2="15" gradientUnits="userSpaceOnUse">
<stop stop-color="#212327"/>
<stop offset="1" stop-color="#1F252E"/>
</linearGradient>
<linearGradient id="paint1_linear_239_4" x1="14" y1="15" x2="156" y2="15" gradientUnits="userSpaceOnUse">
<stop stop-color="#A8FF53"/>
<stop offset="0.5" stop-color="#7DACCF"/>
<stop offset="1" stop-color="#383CAE"/>
</linearGradient>
</defs>
</svg>
